<?xml version="1.0" encoding="utf-8"?>
<!-- Generator: Adobe Illustrator 23.0.2, SVG Export Plug-In . SVG Version: 6.00 Build 0)  -->
<svg version="1.1" id="Layer_1" xmlns="http://www.w3.org/2000/svg" xmlns:xlink="http://www.w3.org/1999/xlink" x="0px" y="0px"
	 viewBox="0 0 621.5 720" style="enable-background:new 0 0 621.5 720;" xml:space="preserve">
<path d="M621.5,0.5c-241.2-8-438.8,80.9-438.8,80.9L182.6,533c-24.6-9.7-54.4-12.1-84.8-4.7C32.4,544.2-10.4,599,2.2,650.7
	s75.8,80.8,141.2,64.9c61.7-15,103.2-64.6,97.2-113.6V264.7c0,0,139.7-48.8,320.9-61.1v250.9c-24.3-9.3-53.6-11.4-83.4-4.2
	c-65.4,15.9-108.2,70.7-95.7,122.4s75.8,80.8,141.2,64.9c57.1-13.9,97-57.4,97.8-102.7l0,0L621.5,0.5L621.5,0.5z"/>
</svg>
