<?xml version="1.0" encoding="utf-8"?>
<!-- Generator: Adobe Illustrator 23.0.2, SVG Export Plug-In . SVG Version: 6.00 Build 0)  -->
<svg version="1.1" id="Layer_1" xmlns="http://www.w3.org/2000/svg" xmlns:xlink="http://www.w3.org/1999/xlink" x="0px" y="0px"
	 viewBox="0 0 304.8 720" style="enable-background:new 0 0 304.8 720;" xml:space="preserve">
<path transform="matrix(6.956 0 0 6.956 -278.41 -155.82)" d="M83.4,91.5c-0.1-0.6-0.3-1.4-0.6-2.2c-0.3-0.8-0.6-1.5-0.9-2.2l-0.5-1
	l0.4-0.8c1.1-2.7,1.6-5.3,1.5-7.9c-0.1-2.6-0.7-5.3-1.9-8.1L81,68.5l0.2-0.5c0.2-0.5,0.4-1,0.6-1.6c0.2-0.6,0.3-1.2,0.5-1.8
	c0.1-0.4,0.1-0.8,0.1-1.1c0-0.3,0-0.9,0-1.7c0-0.8,0-1.6-0.1-2.3c-0.1-0.6-0.2-1.4-0.3-2.1c-0.6-2.5-1.7-5.4-3.4-8.5
	c-0.4-0.7-0.9-1.6-1.5-2.5l-2.3-3.8l-2.4-3.7c-1.9-2.9-3.2-5.6-4.1-7.9c-0.9-2.4-1.4-4.7-1.5-6.9v-1c0-0.5-0.4-0.8-0.8-0.8h-1
	c-0.5,0-0.8,0.4-0.8,0.8v82c0,0-0.1-0.1-0.1-0.1c-1.3-1.2-3-1.9-5.1-2.4c-0.6-0.1-1.3-0.2-2.2-0.2l-2.2,0c-2.9,0.4-5.6,1.5-8,3.2
	c-2.4,1.7-4.2,3.7-5.4,6.2c-0.4,0.9-0.8,1.8-0.9,2.5c-0.2,0.8-0.2,1.6-0.2,2.6c0,0.5,0,1,0,1.2c0,0.3,0.1,0.6,0.1,0.9
	c0.6,2,1.7,3.6,3.3,4.8c1.6,1.2,3.7,1.8,6.2,1.9c3.6,0,6.9-1,10-3.1c3.1-2.1,5.2-4.8,6.4-8c0.2-0.6,0.3-1.2,0.4-1.7
	c0.1-0.5,0.1-1.1,0.1-1.8c0-0.5,0-0.8,0-1.1c0.2-0.1,0.3-0.4,0.3-0.6V76l0.3,0.2l1.8,1.7c3,2.9,5.3,5.5,7,8.1
	c1.7,2.5,2.8,4.9,3.2,7.1c0.4,2,0.3,4.2-0.2,6.7c-0.5,2.5-1.4,5-2.7,7.4c-0.2,0.5-0.4,0.8-0.4,1c-0.1,0.2-0.1,0.4-0.1,0.6
	c0,0.5,0.2,1,0.5,1.3c0.3,0.4,0.7,0.6,1.2,0.8c0.5,0.2,1,0.2,1.5,0.1c0.5-0.1,0.9-0.4,1.2-0.7c0.4-0.4,0.8-1.4,1.4-2.8
	c0.5-1.4,1-2.9,1.4-4.4c0.5-2.1,0.8-4.2,0.9-6.1C83.9,95,83.8,93.2,83.4,91.5z M66.9,40.6l0.4,0.5l0.9,1c2.1,2.6,3.8,5,5.2,7
	c1.3,2.1,2.4,4,3.2,5.8c0.6,1.5,1.1,2.9,1.4,4.4c0.3,1.5,0.3,2.7,0.2,3.7v0.3l-1.5-2l-1.4-1.9l-1.2-1.7c-2.1-3-3.7-5.5-4.8-7.6
	c-1.1-2.1-1.7-4.2-2.1-6.3c-0.1-0.6-0.2-1.3-0.2-2C66.8,41,66.8,40.6,66.9,40.6z M78.7,80.1l-0.1,0.6c0,0.2-0.1,0.3-0.1,0.3
	c0,0.1-0.2-0.2-0.7-0.7l-0.9-1.2l-1.3-1.8c-1.9-2.5-3.3-4.5-4.2-5.9c-0.9-1.4-1.7-2.8-2.3-4.1c-0.7-1.4-1.2-2.9-1.6-4.4
	c-0.4-1.5-0.6-2.8-0.6-4.1v-0.7l1.9,2l1.7,1.8l1.4,1.5h0l2,2.4c0.5,0.7,1.1,1.4,1.6,2.3c1.5,2.2,2.5,4.3,3,6.3
	C78.9,76.4,79,78.3,78.7,80.1z"/>
</svg>
