<?xml version="1.0" encoding="utf-8"?>
<!-- Generator: Adobe Illustrator 23.0.2, SVG Export Plug-In . SVG Version: 6.00 Build 0)  -->
<svg version="1.1" id="Layer_1" xmlns="http://www.w3.org/2000/svg" xmlns:xlink="http://www.w3.org/1999/xlink" x="0px" y="0px"
	 viewBox="0 0 865.9 720" style="enable-background:new 0 0 865.9 720;" xml:space="preserve">
<path d="M0,511.2C0,587.5,41.5,654,103.1,689.7V332.6C41.5,368.2,0,434.9,0,511.2L0,511.2z M653.2,61.1
	c-152.3-81.5-288.2-81.5-440.5,0C160.8,88.9,108.2,151.7,108.2,218v471.6h56.7V218c0-45.4,54.6-103.1,101.5-122.6
	c126.1-52.2,207-52.2,333,0C646.4,114.9,701,172.7,701,218v471.6h56.7V218C757.7,151.7,705.1,88.9,653.2,61.1L653.2,61.1z
	 M762.8,332.6v357.1c61.6-35.6,103.1-102.1,103.1-178.5C865.9,434.9,824.4,368.2,762.8,332.6L762.8,332.6z M223.6,302.3h-31.8
	c-12.2,0-22.2,9.9-22.2,22.2v373.4c0,12.2,9.9,22.2,22.2,22.2h31.8c12.2,0,22.2-9.9,22.2-22.2V324.4
	C245.7,312.2,235.8,302.3,223.6,302.3L223.6,302.3z M673.7,302.3h-31.8c-12.2,0-22.2,9.9-22.2,22.2v373.4c0,12.2,9.9,22.2,22.2,22.2
	h31.8c12.2,0,22.2-9.9,22.2-22.2V324.4C695.9,312.2,685.9,302.3,673.7,302.3z"/>
<path d="M248,493c1.9-0.1,3.9-0.1,5.8,0c0.1,2.1,1.6,11,2,43c0,0.6,0.1,1.3,0.3,1.9c0.3,5.9-0.3,9.6,0.4,11.8
	c0.2,5.8,0,11.6,0.1,17.4h4.7c4.8-16.9,4-39.1,4.5-51.8c0.5-1.4,0.3-2.9,0.4-4.3c0.3-0.9,0.7-4.5,0.8-5.2c0.2,0.2,0.5,0.5,0.7,0.7
	c0,2.2,0.1,2.3,0.9,5.8c0.2,0,0.5,0,0.6,0c0.2-0.8,0.4-1.6,0.6-2.4l0.3,0c0.1,2.1-0.3,4.2,0.3,6.2c0.2,2-0.2,4,0.4,5.9
	c0.1,0.8,0.1,1.5,0.1,2.3c0.2-0.4,0.5-0.8,0.8-1.2c0-5.9,0.2,0.3,0.4-7.9c0.1,0.2,0.4,0.7,0.6,1c0.1,0,0.4,0,0.6,0
	c1.2-5.4,1.2-8.2,1.6-23.3c3.7-0.1,7.3-0.1,11,0c0,1,0,2.1,0.4,3.1c0.3,6,0.6,4.8,0.9,8.5c0.7,1.3,1,1.4,2.4,9.3c0.2,0,0.5,0,0.7,0
	c0.2-4.5,0.4-0.9,0.4-5.9l0.4,0c0,1.7-0.3,3.4,0.3,5.1c0.1,1.6-0.1,3.2,0.4,4.7c0.1,1.6-0.1,3.2,0.4,4.7c0.1,1.6-0.1,3.2,0.4,4.7
	c0.2,1.7-0.2,3.5,0.4,5.1c0.2,1.8-0.2,3.7,0.4,5.5c0.1,1.6-0.1,3.2,0.4,4.7c0.4,6.8,0.7,7.8,1.3,9.7c0.2-0.2,0.6-0.6,0.8-0.7
	c-0.1-1.7,0.4-4.3,1.8-6.7c0.3,0.5,0.6,1,1,1.6c0,0.2,0,0.6,0,0.7c0.4,0.7,0.8,1.5,1.5,2.1c0.2-2.2,0.1-1.7,0.7-3.9
	c0.1-0.4,0.5-3.6,0.7-7.1c0.5-1.7,0.2-3.4,0.4-5.1c0.6-1.8,0.2-3.7,0.4-5.5c0,0,3-29.2,3.2-30.8c0.5-1.2,0.3-2.6,0.3-3.9
	c0.8,0,1.6,0,2.4,0c0,1.4-0.2,2.9,0.3,4.3c0.1,1.6,0.1,18.6,0.8,20.9c0.2,1.8-0.2,3.7,0.4,5.5c0.1,1.6-0.1,3.2,0.4,4.7
	c0.3,5.4,0.4,4.5,0.9,7.8c0.2,0.2,0.6,0.5,0.8,0.7c0.2-0.2,0.5-0.5,0.7-0.7c0.5-1.5,1-3.1,0.9-4.8c0.2,0.2,0.5,0.5,0.6,0.7
	c0.1,0.4,0.3,0.9,0.4,1.3c0,0.4,0,0.7,0,1.1c0.3,0.4,0.7,0.8,1,1.2c0.8-2.8,0.7-2.5,1.1-4.5c0.2-0.2,0.5-0.5,0.7-0.7
	c0,0.7,0,1.3,0,2c0.2,0.2,0.6,0.5,0.8,0.7c1.2-6.9,0.7-14.5,2.1-27h0.2c0.1,1.1,0.2,2.4,1.2,5.4c0,0.8,0.9,13.2,2.9,20
	c0.2-0.2,0.5-0.5,0.7-0.7c1.1-9,0.1,7.9,2.4-35.4l0.3,0c0.2,0.7,0.4,1.4,0.6,2.1c0.2-0.2,0.5-0.5,0.7-0.7c0.1-2.7,0-1.9,0.5-4.2
	c2.9-0.1,5.9-0.1,8.8,0c0.5,2.8,1.4,8,1.7,11.2c0.2-0.2,0.5-0.5,0.7-0.7c0.1-1.6,0.8-6.5,1.3-7.9c0.2,0.2,0.5,0.5,0.7,0.7
	c0,5.8,0,1.7,0.4,6.1c0.2,0,0.6,0,0.8,0c0-0.8,0-1.6,0-2.4h0.8c0.1,2.1-0.3,4.2,0.3,6.2c0.2,1.7-0.2,3.5,0.4,5.1
	c0.1,1.6-0.1,3.2,0.4,4.7c0.2,3.8,0.9,8.8,1.2,9.9c-0.2,3.2,4.1,15.9,4.4,24.3c0.2-0.2,0.6-0.5,0.8-0.7c0-0.6,0.1-1.3,0.1-1.9
	c0.4-1.3,0.3-2.6,0.4-3.9c0.5-1.5,0.3-3.2,0.4-4.7c0.5-1.5,0.3-3.2,0.4-4.7c0.5-1.5,0.3-3.2,0.4-4.7c0.3-0.9,0.8-7.5,0.8-7.9
	c0-0.1,0.4-2.5,0.8-4c0.9-1.4,1.6-2.9,2.4-4.3c0.1,0.2,0.4,0.5,0.6,0.7c1.3,4.8,2.4,18.3,2.4,18.3c0.5,7.6,1.1,10.8,1.3,13
	c0.2,0.2,0.6,0.5,0.7,0.7c0-0.4,3.9-35.1,4-39c0.3-0.8,0.5-1.6,0.8-2.4c0.2,0.2,0.6,0.5,0.7,0.7c0,0.3,0,0.8,0,1c0.2,0,0.5,0,0.7,0
	c0.6-3.2,0.6-1.4,1-6c0.5-1.5,0.2-3.2,0.4-4.7c0.3-0.9,0.3-1.8,0.4-2.7c0.9,0,1.8,0,2.7,0c0.3,6.8,1.5,36.6,2.5,44.5
	c1.3-2.4,1.5-8.2,1.5-10.4c0.2,0.4,0.5,0.8,0.7,1.3c0.5,3.9,0.6,2.1,0.9,5.5c0.2-0.2,0.6-0.5,0.7-0.7c0-0.5,0.1-1,0.1-1.5
	c1.4-4.8,1.8-36,2.4-38.6c5-0.1,10.1-0.1,15.1,0c1.1,4.2-0.1,0.7,1.4,4.8c0.5,0,0.9,0,1.4,0c1.7,5.3,2.1,16.5,2.8,18.5
	c0.1,1.7-0.1,3.4,0.6,5c0.8-0.4,1.6-1.9,2.6-1c0.1,0.8,0.5,2.6,0.8,3.5c0,0.9,0,1.8,0.2,2.7c0.4,0.8,1.4,0.5,2.2,0.6
	c1.1,4.1,1.9,7.9,2.2,10c1.8-1.1,2-2.3,2.7-5.2c0.5-0.9,1.2-1.7,1.9-2.4c0-0.5,0-1,0-1.5c0.2,0.2,0.5,0.5,0.7,0.7
	c0.1,0.8,0.3,1.6,0.5,2.4c0.2-0.2,0.5-0.5,0.7-0.7c0.3-1.1,0.6-2.1,1-3.2c0.1,0.2,0.4,0.5,0.6,0.7c0.7,3.2,0.1,1.6,0.9,9.5
	c0.2-0.2,0.6-0.5,0.8-0.7c0-0.9,0-1.8,0.1-2.7c0.7-2.2,0.1-4.5,0.4-6.7c0.7-2.8,0.1-5.8,0.4-8.7c0.8-3.4,0-6.8,0.4-10.3
	c0.8-3.4,0-6.9,0.4-10.3c0.5-1.6,0.3-3.4,0.3-5.1h2.2c1.1,5.3,0,6.1,0.8,9c0.2,1.8-0.2,3.7,0.4,5.5c0.3,6.3,1,7.2,1.3,9.8
	c0.2,0.2,0.5,0.5,0.7,0.7c1-2.7-0.2-5,1.4-10c0.1,0,0.4,0,0.6,0c0,0.6,0.8,7,1.4,9.3c1.4-3.1,1.4-21.2,1.4-24.3
	c4.2-0.1,8.5-0.1,12.7,0c0,0.5,0.1,1,0.4,1.5c0.5-0.2,0.7-1,0.5-1.5c0.3,0,0.9,0,1.2,0c0.1,0.8,0.2,1.5,0.4,2.3
	c0.3,2.7-0.3,5.6,0.4,8.3c0.3,2.2-0.3,4.5,0.4,6.7c0.2,1.8-0.2,3.7,0.4,5.5c0.3,2.6-0.3,5.3,0.5,7.8c0.2,0.2,0.5,0.5,0.6,0.7
	c0.4-0.8,0.9-1.6,1.5-2.3c1.3,4.5,1.6,9.1,1.9,13.6c1.2-1.9,0.7-3.6,2.8-19.5c0.5-0.5,1-1,1.5-1.5c0.7-5.9,0.6-8.2,2.2-12.7
	c0.3,0.5,0.6,1.1,1,1.6c2.7,15.5,1.3,28.6,4.7,40.3c-0.1,2.3,0.6,4.5,0.5,6.8c0,0.9,0,1.8,0.3,2.7c0.2,2.9,0,5.8,0.1,8.8
	c0,1.7,0.5,3.4,0.5,5.1h0.7c0.4-1.1,0.5-2.4,0.4-3.6c0-1.2,0.3-2.4,0.4-3.6c0.1-1.5-0.1-3,0.2-4.5c0.5-2.2,0.1-4.4,0.3-6.7
	c0.6-1.8,0.2-3.7,0.4-5.5c0.5-1.4,0.3-2.9,0.4-4.3c0.3-0.9,0.3-1.9,0.3-2.8c0.2-0.4,0.5-0.8,0.7-1.2c0,0.3,0,0.9,0,1.2
	c0.2,0.2,0.6,0.5,0.8,0.7c0.8-3,0.9-7.4,0.9-7.7c0.6-1.8,0.2-3.7,0.4-5.5c0.7-2.2,0.1-4.5,0.4-6.7c0.7-2.3,0.1-4.7,0.4-7.1
	c0.6-2.1,0.2-4.4,0.3-6.6l0.3,0c2.1,9.4-0.8,9.5,3.6,25.9c0,1.7,0.1,3.4,0.5,5c0.3,0.6,0.7,1.1,1.1,1.6c1-8.5,0.2-7.2,0.6-11
	c0.7-2.3,0.1-4.7,0.4-7.1c0.7-2.3,0.1-4.7,0.4-7.1c0.7-2.3,0.2-4.8,0.3-7.1c1.7-0.8,2.7-8.7,2.8-10.6c5.4-0.1,10.7-0.1,16.1,0
	c0,1,0,2.1,0.4,3.1c0.6,7.1,0.5,7.9,0.5,9.3c0.2-0.2,0.6-0.5,0.8-0.7c0.1-1,0-0.4,0.5-2.2h0.5c3.4,15.4,0.8,43.5,4.7,48.4
	c2.1-4.5,2.5-22,2.6-22.8c0.2-0.5,3.5-29.9,3.5-30.3h0.3c0.1,2.5-0.4,5,0.3,7.4c0.1,1.4-0.1,2.9,0.4,4.3c0,0.6,0.1,1.2,0.1,1.8
	c0.5,0.8,1,1.6,1.5,2.4c0,0.8,0.1,1.7,0.4,2.5c0.1,1.4-0.1,2.9,0.4,4.3c0.2,1.8-0.2,3.7,0.4,5.5c0.3,2.4-0.3,4.8,0.4,7.1
	c0.3,2.5-0.3,5.1,0.4,7.5c0.3,4.7-0.3,10.3,0.4,12.2c0.1,0.9,0.1,1.8,0.1,2.7c0.2,0.2,0.6,0.5,0.8,0.7c1.6-10.6,1.4-14.9,2.4-19.9
	l0.2,0c1,4.2,0.3,2.2,1.4,5.7c0.2-0.2,0.5-0.5,0.7-0.7c1.1-4.4,2.4-32.6,2.4-33l0.3,0c0,0.2,0.1,0.6,0.1,0.8c0.3,0,0.8,0,1.1,0
	c1.1,3.8,2.7,19.6,2.7,19.7c0.2,2-0.5,4.6,1.5,5.8c5.6-20.8,4.3-29.3,5.8-41.7c5.2-0.1,10.4-0.1,15.5,0c0.1,0.5,0.3,1,0.5,1.5
	c0,0,2.4,26.1,2.4,26.1c1.1,16.1-0.7,3.7,2.1,22.4c0.2,0.2,0.6,0.5,0.7,0.7c0.1-0.4,1.9-11.8,2.1-15.4c1.7,3.4,0.6,3.2,2.3,6.1
	c0.4-0.2,0.9-0.3,1.4-0.3c0.3,0.4,0.6,0.8,0.8,1.2c0.2,0,0.6,0.1,0.8,0.1c0.3-0.5,0.6-1,0.9-1.5c0.6-2.6,1.5-7.6,1.7-10l0.3,0
	c0.1,2.9-0.4,5.8,0.3,8.6c0.3,2.4-0.3,4.8,0.4,7.1c0.1,1.6-0.1,3.2,0.4,4.7c0,0.7,0.1,1.4,0.1,2.1h0.8c0-0.4,1-11.5,2.1-15.9
	c0.2,0.2,0.5,0.5,0.6,0.7c0,1,0,2,0.3,2.9c0.1,1.3,0,2.7,0.4,3.9c0.1,1.8-0.2,1.6,1,9.8c0.8-1.6,0.7-3.4,0.8-5.1
	c0.6-2,0.1-4.2,0.4-6.3c0.7-2.7,0.1-5.5,0.4-8.3c0.7-2.8,0.1-5.8,0.4-8.7c0.7-2.6,0.1-5.3,0.4-7.9c0.7-2.9,0.1-5.9,0.3-8.8
	c0.2-0.2,0.6-0.5,0.8-0.7c0,1.1,0,2.2,0.3,3.2c0.1,1.3,0,2.7,0.4,3.9c0.2,1.8-0.2,3.7,0.4,5.5c0.2,1.8-0.2,3.7,0.4,5.5
	c0.2,1.7-0.2,3.5,0.4,5.1c0.5,7.8,0.7,7.5,1.3,9.8c0.2,0.2,0.6,0.6,0.8,0.8c0.4-0.5,0.7-1.1,1.1-1.6c1.3-5.9,2.4-7,2.9-14.9
	c0.5-2,3.1-26,3.1-26.4c5.9-0.1,11.8-0.1,17.7,0c0,11.5-0.1,11.4,0.3,12.6c0.3,2.6-0.3,5.3,0.4,7.9c0.3,2.2-0.3,4.5,0.4,6.7
	c0.2,2-0.2,4,0.4,5.9c0.2,5.4,0.4,3,0.9,7.5c0.8,0.5,1.8,0.9,2.3,1.8c4.9-0.8,3.1-13.2,6.2-28.8v-19.3c-0.1-0.4-0.2-0.9-0.2-1.4
	c-0.2-0.4-0.5-0.8-0.7-1.3c-1.6-9-0.2-1.7-1.3-17.2c-0.1-0.4-1.1-8.9-1.1-9.2c-0.3-0.4-0.6-0.8-0.9-1.2c-1.2,4-2.2,14.4-2.2,17
	c-0.4-0.5-0.8-1.1-1.2-1.6v-0.7c-0.4-0.8-0.9-1.6-1.3-2.3c-0.2,0.2-0.6,0.7-0.8,0.9c-0.4,0-0.8,0-1.3,0c-0.3-0.3-0.6-0.6-0.9-1
	c-0.4-2.3-0.4-1.8-0.9-8.6c-0.6-1.7-0.2-3.4-0.4-5.1c-0.5-1.5-0.2-3.2-0.4-4.7c-0.4-1.2-0.3-2.5-0.5-3.7c-0.1-0.2-0.3-0.5-0.4-0.6
	c-0.3-1.4-0.2-2.9-0.3-4.3c-0.5-1.3-0.8-7.1-0.8-7.5c-0.8-2.2-0.5-15.1-2.4-20l-0.2,0c-0.1,0.3-0.3,0.8-0.4,1
	c-0.2,1.8-5,49.2-5.3,50.6l-0.3,0c-0.1-3.4,0-1.7-0.5-4.3h-0.6c-0.9,3.4-0.8,3-1,4.1c-0.1,0.3-0.3,0.8-0.5,1.1
	c-0.5-0.2-1-0.4-1.4-0.6c-1.6,5.8-1,11.8-2.5,26.2c-2.3,0.1-4.6,0.1-7,0c-1.1-2.1,0.1-4.5-0.8-6.7c-2.3-22.4-1.2-10.1-4.1-29
	c-0.2,0.2-0.5,0.5-0.7,0.7c-1.4,11-1.7,24-1.7,24.4c-0.4,1.1-0.4,1.3-0.3,10.6c-2.1,0.1-4.2,0.1-6.2,0c0-0.5-0.3-4.6-1.5-9
	c-0.7-2.7-1-15.5-2.5-20.4c-0.2,0.2-0.5,0.5-0.7,0.7c0,0-1.1,8-1.1,8c-0.8,3.6-0.9,3.5-1,5.5c-0.4,0.6-0.8,1.2-1.3,1.8
	c-0.5-0.4-0.9-0.7-1.4-1c-2.2,7.3-0.6,11.3-1.7,14.4c-0.8,0-1.6,0-2.3,0c-0.1-1.8,0.3-3.7-0.3-5.5c-0.3-2.1,0.3-4.3-0.4-6.3
	c-0.2-2,0.2-4-0.4-5.9c-0.1-1.3-0.1-2.7-0.1-4h-0.4c0,0.7-0.1,1.4-0.1,2.1c-0.5,1.4-0.3,2.8-0.3,4.2h-0.4c-0.2-15.8-1-32.7-4.4-63.3
	c-0.3-0.5-0.6-1-0.9-1.6c-0.5,0.6-0.9,1.3-1.3,1.9c-0.3,1.9-0.2,1.4-0.7,3.2c-1.6,5.6-4,30-4,30c-0.2,1.6,0.1,3.2-0.4,4.7
	c-1,10.3,0.2,10.7-1.2,16.2c-0.1,1.2,0,2.4-0.4,3.6c-0.1,1.4-0.1,2.7-0.2,4.1c-0.7,2.2-0.1,4.5-0.4,6.7c-0.7,2.4-0.1,5-0.4,7.5
	c-0.2,0.8-0.3,1.5-0.4,2.3c-3,0.1-6,0.1-9,0c0-4.7-0.2-2-0.4-5.6l-0.3,0c-0.4,3.3-0.5,1.3-0.4,5.5c-0.5,0-1.1,0-1.6,0
	c0-4.2-0.7-7.3-0.9-8.9c-1.4,0.8-2.2,7.5-2.3,9c-2.7,0.1-5.4,0.1-8.1,0c-1.2-3.7,0.1-5.8-0.8-9c-0.3-2.2,0.3-4.5-0.4-6.7
	c-0.1-1.6,0-3.3-0.2-4.9c-0.3-0.9-0.7-7.7-0.9-8.9c-0.5-2-0.5-2.1-0.6-3.1c-0.4-0.5-0.8-1.1-1.1-1.6c0-0.2,0-0.5-0.1-0.7
	c-0.5-0.9-1.1-1.9-1.7-2.7c-0.4,0.4-0.8,0.9-1.2,1.3c-0.2,0-0.7,0-0.9,0c-0.1,0.3-0.4,0.8-0.5,1c0,1.1,0,2.2-0.4,3.2
	c-0.2,3.6,0.1,7.2-0.2,10.8c-0.8,2.1,0.1,4.4-0.6,6.5c-0.1,1-0.1,2.1-0.1,3.1c-0.2,0.2-0.6,0.5-0.8,0.7c0-1.2,0.1-2.5-0.3-3.6
	c-0.3-2.1,0.3-4.3-0.4-6.3c-0.2-2.4,0-4.9-0.2-7.3c-0.7-2.6-0.1-5.3-0.4-7.9c-0.6-1.9-0.1-4-0.4-5.9c-0.4-1.1-0.3-2.2-0.3-3.3
	c-0.2-0.2-0.6-0.5-0.8-0.7c-0.1,2.1,0.3,4.3-0.3,6.4c-0.2,1.7,0.2,3.5-0.4,5.1c-0.2,2,0.2,4-0.4,5.9c-0.2,2,0,4.1-0.2,6.1
	c-0.6,2.1-0.2,4.4-0.3,6.6h-0.4c0-1.3,0.1-2.6-0.3-3.9c-0.1-1.5-0.1-3-0.2-4.5c-0.6-1.7-1.1-15.2-2.4-18c-1.8,0.1-2.1-0.6-3.2-7.3
	c-0.4-1.6-0.2-3.2-0.3-4.7c-2.7-9-2.6-14-3.9-19.4c-0.2,0.2-0.6,0.5-0.7,0.7c-1.8,31-6,72.4-6,72.8c-2.8,0.1-5.6,0.1-8.4,0
	c-0.9-3.3,0,0-1.1-5c-0.8,0.5-1,1.3-1.5,5c-2.9,0.1-5.9,0.1-8.8,0c-0.1-0.3-0.4-0.8-0.5-1.1c-0.2-2.5,0.3-5.1-0.3-7.5
	c-0.3-2.2,0.3-4.5-0.4-6.7c-0.1-1.8,0-3.5-0.2-5.3c-0.5-1.5-0.2-3.2-0.4-4.7c-0.5-1.5-0.2-3.2-0.4-4.7c-0.5-1.4-0.3-2.9-0.4-4.3
	c-0.4-1.3-0.3-2.6-0.4-3.9c-0.3-0.8-0.3-1.7-0.4-2.5c-0.2-0.2-0.6-0.5-0.7-0.7c0,0.7,0.3,4.1-0.9,9.1c-0.9-1.7-1.1-5.1-1.2-6.6
	c-0.3-0.9-0.3-1.9-0.3-2.9c-0.2-0.2-0.6-0.5-0.7-0.7c0,1.1,0,2.2-0.3,3.2c-0.7,5.9-0.9,25.8-1,27.4c-0.6,1.6,0,3.4-0.9,4.9
	c-1.4-5.9-1.8-18.8-1.8-19.2c-0.1-0.3-1.1-10.5-1.2-11H450c0,0.4-0.5,5.9-0.7,6.6c-0.1,1.8,0,3.5-0.2,5.3c-0.8,2.4,0.2,4.9-0.6,7.3
	c-0.1,2-0.1,4-0.1,6l-0.4,0c0-1.1,0-2.2-0.1-3.2c-0.9-3,0.3-6.3-0.6-9.3c-0.2-2.3,0-4.6-0.2-6.9c-0.7-2.3-0.1-4.7-0.4-7.1
	c-0.6-1.8-0.2-3.7-0.4-5.5c-0.7-2.2-0.2-4.5-0.3-6.8c-0.1-0.3-0.4-0.8-0.5-1l-0.2,0c-1.1,2.9-0.8,4.4-2.1,6.8c-0.5,0-1,0-1.4-0.1
	c-0.1,1.2-0.3,3-1.5,5.7c-0.5-0.2-1-0.4-1.4-0.6c-0.4,0.5-0.8,1-1.2,1.5c-0.7,6.5-0.7,11.4-2.9,26.9c-0.3,0.6-0.7,1.2-1.3,1.5
	c-0.3-4.5-1-6.4-1.3-9.2c-0.2-0.2-0.5-0.5-0.7-0.7c-1.8,11.7-1.6,14.2-2.5,17.5l-0.2,0c-2.3-13.1-1.9-14.4-3-18.3
	c-0.9,0.1-1.4,0.7-1.6,1.6c-0.7,0.7-1.3,1.5-1.8,2.3c-0.1,0.4-2.4,11.8-2.4,17.2c-3.2,0.1-6.5,0.1-9.7,0c-0.7-3.1-0.7-10.1-1.8-18
	c-1.1,1.9-0.7,4.1-1.5,7.7h-0.3c0-0.9-0.1-1.8-0.4-2.7c-0.1-1.1-0.1-2.2-0.2-3.3c-0.1-0.3-1.1-9.5-1.1-9.6c-0.2-0.2-0.5-0.5-0.6-0.7
	c-1.2,3.2-0.9,6.8-1.8,18.3c-0.4,1.2-0.5,6.4-1.1,8.2l-0.3,0c-0.1-0.3-0.4-0.8-0.5-1.1c0-1.1,0-2.2-0.4-3.2
	c-0.2-1.8,0.2-3.7-0.4-5.5c-0.2-2,0.2-4-0.4-5.9c-0.1-1.6,0-3.3-0.2-4.9c-1-2.9,0.6-6.1-1-8.8c-0.7,4.6-0.4,2.7-0.6,5.5
	c-0.6,1.8-0.2,3.7-0.4,5.5c-0.7,2,0.1,4.2-0.6,6.1c-0.1,1.5-0.1,3-0.1,4.4l-0.4,0c0-1.2,0-2.4-0.1-3.6c0,0-0.9-6.7-1.6-12
	c-0.5,1-1.1,2.9-1.5,5.2c-0.3,0.5-0.6,1.1-1,1.6c-1.5-3.2-1.8-7-1.9-8c-2.5-5.6-2.1-11.4-3.5-15.2h-0.2c-1.6,4.4,0.2,0.8-2.7,17.2
	c-0.1,0.2-0.2,0.5-0.3,0.7c-0.1,0.8-0.3,1.6-0.4,2.3c-0.4,1.7-0.2,3.4-0.3,5.1c-0.6,1.6-0.2,3.4-0.4,5.1c-0.3,0.9-0.7,4.6-0.8,4.9
	c-0.5,0.3-1,0.7-1.5,1c-0.2,2.5,0.1,0.6-0.5,3.5c-1.8,0.1-3.6,0.1-5.3,0c0-0.9-0.1-1.9-0.4-2.7c-0.2-1.7,0.2-3.5-0.4-5.1
	c-0.1-1.6,0.1-3.2-0.4-4.7c-0.2-2.9,0.1-5.9-0.2-8.9c0,0-2.5-24.5-4-30.3h-0.7c0,2.2-0.4,6.6-0.7,7.4c-0.2,1.6,0.1,3.2-0.4,4.7
	c-0.2,1.8,0.2,3.7-0.4,5.5c-0.2,1.8,0.2,3.7-0.4,5.5c-0.1,1.6,0,3.3-0.2,4.9c-0.6,1.7-0.2,3.4-0.4,5.1c-0.6,1.6-0.2,3.4-0.4,5.1
	c-0.6,1.6-0.2,3.4-0.4,5.1c-0.6,1.9-0.2,4-0.4,5.9c-0.2,0.8-0.3,1.5-0.4,2.3c-1.6,0.1-3.3,0.1-4.9,0c-0.2-0.5-0.3-1-0.5-1.5
	c-0.2-7,0.3-9.6-0.4-11.5c-0.2-3.4,0-26.6-2.5-35.4c-2.9-0.5-1.5-5.3-3.2-9.6l-0.2,0c-2,19.5-1.1,27-1.7,35.2
	c-0.7,2,0.1,4.2-0.6,6.1c-0.1,1.1-0.1,2.2-0.2,3.3c-0.3,0.9-0.3,1.9-0.4,2.8c-0.1,0.3-0.3,0.9-0.4,1.2c-0.2-0.2-0.5-0.5-0.6-0.7
	c-0.1-3-0.1-0.3-0.5-5.8c-0.6-1.7,0-3.6-0.6-5.3c-0.2-2-0.1-4-0.1-6h-0.7c0,0.4-0.5,5.9-0.8,6.6c-0.1,1.5-0.1,3-0.2,4.5
	c-0.6,1.9-0.2,3.9-0.4,5.9c-0.7,2-0.1,4.2-0.4,6.3c-0.4,1.2-0.3,2.6-0.3,3.9c-0.2,0-0.6,0-0.8,0c0-0.8-1.3-27.7-1.3-27.7
	c0,0-2.5-22.9-3.1-25.3c-0.2,0.2-0.5,0.5-0.7,0.7c-0.5,2.1-0.4,1.2-0.5,4.2c-0.1,0-0.4,0-0.5,0c-0.4-0.6-0.9-1.2-1.3-1.8
	c-1.3,6.4-2,16.4-2.7,20.2c-0.1,0.2-0.2,0.5-0.3,0.6c-0.1,0.6-0.2,1.2-0.3,1.8h-0.3c0-3.5-0.7-7.7-1.3-11.2
	c-0.2,0.4-0.5,0.8-0.7,1.2c0,1.3,0.1,2.7-0.3,4c-0.3,2.1,0.3,4.3-0.4,6.3c-0.3,2.7,0.3,5.6-0.4,8.3c-0.1,0.7-0.1,1.5-0.1,2.2
	c-0.2,0.4-0.5,0.8-0.7,1.3c-0.4,4.1-0.1-0.7-0.5,5.4c-0.6,1.7-0.2,3.4-0.4,5.1c-0.5,1.5-0.3,3.1-0.3,4.7c-3,0.1-6.1,0.1-9.1,0
	c0-1.6,0.2-3.2-0.3-4.7c-0.3-2.2,0.3-4.5-0.4-6.7c-0.1-1.8,0-3.5-0.2-5.3c-0.7-2.7-0.1-5.5-0.4-8.3c-0.6-2.3-0.2-2.3-1.6-6.7
	c-0.5-2.1-0.3-2-1.2-4.3c-0.2,0.2-0.5,0.5-0.6,0.7c-1.6,12.9-1.2,11-2.4,13.1c-0.3,2.2-0.7,2.7-1.3,5.9c-0.3,0.5-0.6,1.1-1,1.6
	c-0.1-0.3-0.4-0.9-0.5-1.2c-0.1-2-0.2-2.2-0.5-3.7c-0.2,0-0.5,0-0.7,0c0,0.6,0,1.2-0.1,1.8c-1.4-2.9-0.4-3.5-0.8-8.2
	c-0.7-2-0.1-4.2-0.4-6.3c-0.5-1.3-0.3-2.7-0.3-4c-0.1-0.3-0.4-0.8-0.5-1h-0.2c-0.4,3.1-0.7,3.4-0.8,6.8c-0.2-0.2-0.6-0.5-0.8-0.7
	c0-1,0-2.1-0.1-3.1c-0.5-1.5-0.2-3.2-0.4-4.7c-0.5-1.5-0.2-3.2-0.4-4.7c-0.5-1.5-0.2-3.2-0.4-4.7c0,0-1.6-12-1.6-12
	c-0.1-0.2-0.4-0.5-0.6-0.7c-0.9,4.7-0.4,21.3-2.5,34.2c-0.2-0.2-0.5-0.5-0.7-0.7c-1.1-4.4-1.2-13-1.2-13.4c-0.3-0.4-0.5-0.8-0.7-1.2
	c0,1,0,1.9-0.4,2.9c-0.2,1.7,0.2,3.5-0.4,5.1c-0.3,2.5,0.3,5.1-0.4,7.5c-0.2,2.7,0,5.4-0.2,8.1c-0.7,2.7-0.1,5.5-0.4,8.3
	c-0.7,2-0.1,4.2-0.4,6.3c-0.5,1.4-0.3,2.8-0.3,4.3h-2.4c-0.1-2.5,0.4-5-0.3-7.4c-0.3-2.5,0.3-5.1-0.4-7.5c-0.2-2,0.2-4-0.4-5.9
	c-0.1-1.4-0.1-2.7-0.2-4.1c-0.3-0.9-0.3-1.8-0.4-2.8c-1.7-7.7-0.6-5.7-3.2-20.5c-2.1-6.9-2-20.9-3.1-26.2c-0.1-0.2-0.4-0.5-0.6-0.7
	c-0.1,0.7-0.2,1.3-0.4,2c0,0.4-1.7,16.4-2.3,19.3c-0.7,3.2-0.7,8.7-1.3,10.3c-0.2,1.6,0.1,3.2-0.4,4.7c-0.2,1.8,0.2,3.7-0.4,5.5
	c-0.3,2.1,0.3,4.3-0.4,6.3c-0.2,1.9,0,3.8-0.2,5.7c-0.7,2-0.1,4.2-0.4,6.3c-0.3,0.8-0.3,1.6-0.4,2.4c-0.2-0.2-0.5-0.5-0.7-0.6
	c-1.5,8.8-0.6,8.2-0.8,13.2c-6,0.1-12.1,0.1-18.1,0c-0.2-0.8-1.7-9.7-2.1-15.1c-0.6-1.6,0-3.4-0.6-5c-0.1-1.2-0.1-2.5-0.2-3.7
	c-0.7-2.6-0.1-5.3-0.4-7.9c-0.2-0.7-0.8-5.5-0.8-5.9c-0.5-1.8-0.2-3.7-0.3-5.5c-0.7-3,0-6.1-0.4-9.1c-0.7-3,0-6.1-0.4-9.1
	c-0.7-2.7-0.1-5.5-0.4-8.3c-0.7-2-0.1-4.2-0.4-6.3c-0.4-1-0.3-2.1-0.4-3.2c-0.1-0.3-0.4-0.8-0.5-1h-0.2c-0.2,2.5-0.9,9.8-3.1,64.4
	V515c0.9-8.5,1.9-18.5,1.9-18.5C248.1,495.3,248,494.1,248,493L248,493z"/>
</svg>
