<?xml version="1.0" encoding="utf-8"?>
<!-- Generator: Adobe Illustrator 23.0.2, SVG Export Plug-In . SVG Version: 6.00 Build 0)  -->
<svg version="1.1" id="Layer_1" xmlns="http://www.w3.org/2000/svg" xmlns:xlink="http://www.w3.org/1999/xlink" x="0px" y="0px"
	 viewBox="0 0 252.8 720" style="enable-background:new 0 0 252.8 720;" xml:space="preserve">
<path d="M176.3,348.8c-8.2-1.3-16.1-1.4-23.5-0.5c-3.6-26.9-7.1-52.4-10.1-74.6c16.9-15.3,33.2-30.7,40.8-39.9
	c34.3-41.7,35.9-77.4,38.8-112c2.8-33.7-5.1-92.4-30.8-118.9c-1.7-1.7-3.8-2.5-5.9-2.9c-9.6-1.8-29.1,12.3-41.5,34.2
	c-33.5,59.4-32.1,110.3-22.8,174.6c0.1,0.9,0.7,5.4,1.7,13C74.1,262.7,6.7,316.2,0.4,394.6c-2.8,34.5,8,76.5,34.2,107.4
	c22.6,26.6,60.4,49.9,97.4,52c12.4,0.7,24.1-0.1,34.9-2.1c4.8,35.9,8.1,60.9,8.6,64.5c15.4,107.5-84.7,95.1-98,71.3
	c8.6,0.8,42.5-0.2,44.4-34.7c2.2-39-37.9-59.3-65.4-35.6c-35.7,30.8-10.2,111.8,69.6,101.8c36.9-4.7,73.1-30.8,63.9-94.1
	c-0.2-1.7-4.4-32.2-10.3-76.3c43.5-13.3,70.7-49,72.9-91.8C256,390.7,217.6,355.2,176.3,348.8z M140,119.9
	c8.2-24,26.6-59.2,48.9-56.7c23.4,2.6,21.5,37.1,9.7,66.6c-6.1,15.2-11.8,29.7-39.1,59.3c-6.7,7.3-15.4,15-25.1,23.3
	c-1.3-9.3-2.1-15.2-2.3-16.7C127.7,163.2,132.7,141.5,140,119.9z M128.8,541.7c-26.1-0.3-57.2-15.5-75.9-37
	C20.3,466.7,22.8,424,37.2,390c12.8-30.2,36.5-55.3,69.2-84c7.1-6.3,15.9-14,25-22.1c2.7,20,5.7,42.8,8.9,66.9
	c-43,12.1-69.6,57.9-63,97.8c5.7,34.4,28.8,54.4,49.8,56.9c1.7,0.2,3.5,0.1,4.4-2.2c1.1-2.7-2.9-4.6-4.6-5.3
	c-4.7-1.9-9.6-5.4-14.1-10c-12.9-13.3-21.4-41.4-2.1-68c9.2-12.7,22-20,35.8-22.4c6.6,49.6,13.3,100.5,18.7,140.7
	C154.8,540.7,142.7,541.8,128.8,541.7z M223.4,466.2c-0.5,29.4-11.8,56.3-45.5,68.5c-5.4-40.3-12.1-89.6-18.6-137.9
	C191.5,397.9,224.1,423.6,223.4,466.2z"/>
</svg>
