<?xml version="1.0" encoding="utf-8"?>
<!-- Generator: Adobe Illustrator 24.0.3, SVG Export Plug-In . SVG Version: 6.00 Build 0)  -->
<svg version="1.1" id="Layer_1" xmlns="http://www.w3.org/2000/svg" xmlns:xlink="http://www.w3.org/1999/xlink" x="0px" y="0px"
	 viewBox="0 0 800 800" style="enable-background:new 0 0 800 800;" xml:space="preserve">
<style type="text/css">
	.st0{fill:#E41421;}
</style>
<path class="st0" d="M554.4,544.1H447.8c-5.9,0-10.7-4.8-10.7-10.7V265.8c0-5.9,4.8-10.7,10.7-10.7h98.9c74.2,0,89.7,43.7,89.7,80.3
	c0,21.2-5.6,38-16.8,50.4c27.2,11.2,41.9,36.5,41.9,73.1C661.5,512.3,621.4,544.1,554.4,544.1z M399.6,544.1H178.2
	c-5.9,0-10.6-4.8-10.6-10.7V265.8c0-5.9,4.8-10.7,10.6-10.7h103.5c64.6,0,103.2,34.8,103.2,93.1c0,38.8-19.5,69.3-50.9,81.6
	l73.7,96.6c1.7,1.9,2.7,4.4,2.7,7.1C410.2,539.3,405.5,544.1,399.6,544.1z M400,0C179.1,0,0,179.1,0,400s179.1,400,400,400
	s400-179.1,400-400S620.9,0,400,0z"/>
</svg>
