<?xml version="1.0" encoding="UTF-8" standalone="no"?>
<!DOCTYPE svg PUBLIC "-//W3C//DTD SVG 1.1//EN" "http://www.w3.org/Graphics/SVG/1.1/DTD/svg11.dtd">
<svg xmlns="http://www.w3.org/2000/svg" version="1.1" viewBox="0.00 0.00 2400.00 600.00">
<path fill="#ffffff" d="
  M 196.79 166.24
  C 204.54 147.07 201.63 124.04 180.75 114.91
  C 144.53 99.07 102.79 138.64 118.18 175.75
  Q 122.31 185.71 130.19 195.08
  C 146.44 214.44 164.93 230.66 182.55 249.69
  C 200.52 269.11 216.89 291.88 221.91 318.22
  C 236.14 392.88 152.76 446.29 87.00 426.67
  C 28.71 409.28 15.67 336.24 63.15 298.90
  C 71.93 291.99 82.69 288.05 93.98 289.89
  C 96.46 290.29 104.42 292.27 102.28 296.26
  Q 101.48 297.74 99.22 298.02
  C 80.88 300.27 67.88 319.49 62.59 335.52
  C 52.31 366.66 70.04 394.41 101.50 400.18
  C 131.84 405.75 166.31 392.50 184.02 367.06
  C 209.93 329.86 182.99 292.75 157.20 266.29
  C 145.04 253.81 126.97 237.31 111.85 220.15
  C 91.29 196.82 79.89 169.18 88.80 137.84
  C 99.93 98.71 139.20 71.02 180.25 76.99
  C 214.64 82.00 240.66 111.11 238.97 146.50
  C 237.54 176.58 215.94 200.56 191.29 215.07
  C 183.68 219.55 175.13 214.70 177.88 205.46
  Q 178.35 203.85 179.46 201.71
  C 185.52 189.99 191.84 178.50 196.79 166.24
  Z"
/>
<path fill="#ffffff" d="
  M 739.99 278.45
  C 760.79 261.20 794.13 258.38 809.39 284.86
  C 820.16 303.55 813.63 329.62 807.87 349.51
  Q 803.85 363.40 799.65 377.23
  C 797.62 383.93 795.30 393.50 796.73 400.43
  A 0.34 0.34 0.0 0 0 797.22 400.67
  Q 807.69 395.52 814.40 385.88
  C 827.99 366.33 837.00 342.24 843.29 319.43
  C 845.37 311.89 852.67 310.89 853.52 319.73
  Q 854.50 329.97 854.18 340.25
  C 853.42 364.16 842.76 387.23 828.64 406.14
  C 818.55 419.65 799.86 435.11 782.16 425.53
  C 761.16 414.16 768.05 385.45 773.26 367.07
  C 778.36 349.12 781.51 338.52 784.43 323.89
  C 785.94 316.32 786.87 303.11 781.72 297.12
  C 776.48 291.04 766.75 292.35 760.12 295.95
  C 738.56 307.67 726.36 337.21 720.46 359.54
  Q 711.61 393.06 711.07 427.76
  C 710.98 434.11 705.50 440.49 698.15 439.45
  C 690.39 438.35 687.74 431.79 687.31 424.76
  C 684.96 385.90 688.67 347.28 701.09 310.26
  Q 717.02 262.74 743.82 220.41
  Q 744.10 219.98 743.81 219.56
  C 732.31 202.74 724.75 184.42 724.76 163.76
  C 724.76 137.89 735.33 113.71 755.47 96.75
  Q 763.70 89.82 772.24 88.56
  C 794.03 85.36 804.14 110.67 805.07 128.01
  C 807.05 165.04 788.34 197.86 768.04 227.00
  A 1.61 1.60 -45.4 0 0 768.05 228.83
  C 770.47 232.21 780.36 245.08 778.94 248.96
  A 2.21 2.21 0.0 0 1 776.50 250.38
  C 771.26 249.52 764.50 243.39 760.81 239.84
  Q 760.34 239.39 760.01 239.95
  Q 748.90 258.58 739.68 278.21
  Q 739.30 279.03 739.99 278.45
  Z
  M 782.46 134.13
  C 782.71 129.00 781.76 113.10 774.85 112.06
  C 770.41 111.40 763.54 117.21 760.29 120.83
  C 738.31 145.27 737.82 177.19 753.30 205.08
  Q 753.48 205.40 753.68 205.09
  C 768.14 183.33 781.19 161.03 782.46 134.13
  Z"
/>
<path fill="#ffffff" d="
  M 1311.87 343.48
  C 1308.21 344.08 1304.60 344.52 1301.03 344.51
  Q 1292.43 344.50 1288.75 343.21
  C 1285.87 342.20 1284.67 339.33 1286.98 336.96
  Q 1288.50 335.41 1292.69 333.87
  Q 1303.41 329.92 1313.91 326.48
  A 2.15 2.14 -4.0 0 0 1315.34 324.84
  Q 1320.32 298.11 1328.15 272.07
  A 0.30 0.29 89.2 0 0 1327.78 271.70
  C 1294.99 282.76 1266.67 312.65 1265.81 348.76
  C 1264.86 388.82 1298.59 405.88 1334.26 399.46
  C 1358.64 395.08 1380.67 383.53 1399.26 367.56
  C 1438.99 333.45 1466.77 283.11 1468.73 230.25
  C 1469.60 206.90 1463.94 181.52 1449.63 162.48
  C 1417.60 119.87 1357.03 119.37 1314.70 145.21
  Q 1290.57 159.95 1270.84 177.59
  Q 1259.00 188.18 1232.74 214.32
  C 1226.06 220.97 1220.82 224.96 1212.84 228.35
  A 1.59 1.58 62.3 0 1 1210.89 227.74
  Q 1210.01 226.35 1210.69 224.20
  C 1213.78 214.53 1218.25 209.12 1225.89 199.40
  C 1253.48 164.27 1285.64 127.12 1328.18 110.57
  C 1368.63 94.84 1417.88 98.81 1452.79 126.36
  C 1498.35 162.30 1507.17 223.86 1492.42 276.97
  C 1478.83 325.91 1448.82 368.96 1407.45 398.44
  C 1375.92 420.91 1336.23 436.35 1297.26 426.47
  C 1240.62 412.10 1228.07 350.90 1254.90 304.92
  C 1271.84 275.88 1301.19 254.22 1334.69 249.03
  A 1.71 1.68 -84.4 0 0 1336.04 247.90
  C 1342.50 228.96 1349.79 209.96 1358.84 192.02
  C 1361.02 187.70 1365.56 179.07 1370.48 178.70
  A 1.35 1.33 -28.1 0 1 1371.36 178.96
  C 1379.91 185.31 1366.11 239.32 1363.47 249.93
  A 1.04 1.04 0.0 0 0 1364.19 251.19
  C 1375.83 254.50 1385.55 263.29 1388.36 275.06
  C 1391.34 287.55 1386.00 300.96 1377.45 310.50
  Q 1362.50 327.16 1340.98 333.66
  Q 1339.56 334.09 1339.15 335.54
  C 1337.19 342.52 1327.84 374.99 1318.74 374.52
  C 1310.23 374.08 1312.02 350.75 1312.50 344.06
  A 0.55 0.54 87.2 0 0 1311.87 343.48
  Z
  M 1359.38 270.88
  L 1359.18 270.59
  A 0.66 0.66 0.0 0 0 1358.01 270.78
  L 1345.95 312.25
  Q 1345.82 312.73 1346.25 312.49
  C 1355.52 307.52 1362.57 302.07 1367.17 292.35
  C 1371.25 283.74 1369.74 274.57 1359.94 271.29
  A 1.08 1.08 0.0 0 1 1359.38 270.88
  Z"
/>
<path fill="#ffffff" d="
  M 580.90 183.85
  Q 597.39 178.90 609.20 190.03
  C 618.44 198.73 618.81 213.71 611.04 224.05
  C 597.33 242.29 577.92 238.55 559.00 232.41
  Q 545.17 227.92 535.70 226.11
  Q 535.24 226.02 535.17 225.56
  Q 533.36 212.46 529.98 197.51
  C 528.06 189.01 526.66 178.26 528.46 170.19
  C 533.16 149.06 560.61 134.69 576.95 154.36
  Q 587.34 166.86 580.57 183.48
  Q 580.35 184.01 580.90 183.85
  Z
  M 566.89 195.03
  Q 566.85 194.81 567.32 193.55
  C 570.56 185.01 569.59 170.45 561.45 164.81
  C 554.40 159.93 546.53 166.05 544.60 173.07
  C 542.65 180.22 545.47 189.90 546.73 197.11
  C 547.92 203.88 547.80 208.39 546.58 214.76
  Q 546.53 215.04 546.81 215.01
  C 558.41 213.66 569.51 218.10 580.53 221.02
  C 587.16 222.78 597.01 223.81 600.87 216.74
  C 603.66 211.62 602.15 204.79 597.76 200.98
  C 589.58 193.89 579.20 193.90 569.03 196.41
  Q 567.23 196.86 566.89 195.03
  Z"
/>
<path fill="#ffffff" d="
  M 972.55 207.92
  Q 978.50 210.61 986.25 209.54
  C 999.58 207.69 1011.05 198.65 1015.24 185.77
  C 1016.45 182.06 1016.99 171.56 1009.99 173.26
  C 1000.70 175.51 993.71 182.02 990.65 191.08
  C 989.86 193.43 989.30 196.51 987.58 198.36
  C 985.21 200.92 981.80 199.96 979.94 197.27
  C 957.60 165.13 1018.29 129.68 1034.78 165.71
  C 1040.42 178.04 1035.02 194.00 1026.59 204.09
  C 1013.40 219.86 991.49 230.41 970.67 225.78
  Q 953.55 221.97 948.09 206.39
  C 943.24 192.54 950.19 175.24 960.27 165.04
  Q 964.19 161.06 969.46 158.19
  A 1.79 1.77 37.1 0 1 970.73 158.02
  Q 973.02 158.54 971.92 160.95
  Q 966.14 173.53 964.24 187.25
  C 963.11 195.44 964.05 204.07 972.55 207.92
  Z"
/>
<path fill="#ffffff" d="
  M 291.77 355.34
  A 0.23 0.23 0.0 0 0 291.49 355.62
  C 296.28 377.01 311.17 391.96 333.58 393.95
  C 358.78 396.18 379.76 383.16 401.13 371.95
  C 405.86 369.47 411.07 372.53 408.79 378.02
  Q 407.51 381.11 404.15 385.87
  Q 398.40 394.03 391.47 401.23
  C 356.70 437.33 296.71 442.87 268.31 395.05
  Q 253.60 370.27 256.32 340.42
  A 2.02 2.01 22.3 0 0 255.58 338.67
  C 233.09 320.26 228.71 292.29 238.48 265.50
  C 249.55 235.17 276.38 206.88 309.21 200.85
  Q 324.54 198.04 337.82 205.53
  C 338.96 206.18 340.17 207.39 340.20 208.63
  A 1.49 1.49 0.0 0 1 338.72 210.15
  C 307.06 210.44 280.35 234.11 266.87 261.67
  C 260.23 275.25 257.03 292.75 264.34 306.78
  A 0.28 0.28 0.0 0 0 264.85 306.76
  C 278.42 274.83 306.25 249.03 341.24 244.86
  Q 359.23 242.71 375.43 249.08
  C 397.41 257.71 408.20 279.70 400.60 302.52
  C 393.76 323.04 376.29 339.41 356.87 348.44
  Q 326.10 362.75 291.77 355.34
  Z
  M 374.95 286.02
  C 373.20 274.61 357.05 271.81 348.00 272.51
  C 319.06 274.74 298.82 298.14 292.38 324.96
  Q 292.29 325.31 292.64 325.42
  C 318.67 333.19 347.74 328.31 366.44 307.50
  C 371.29 302.10 376.06 293.30 374.95 286.02
  Z"
/>
<path fill="#ffffff" d="
  M 1702.72 306.92
  A 0.19 0.19 0.0 0 0 1703.06 306.90
  C 1715.34 277.55 1739.75 254.04 1771.57 248.14
  C 1792.82 244.21 1818.29 249.31 1830.35 269.16
  C 1842.32 288.86 1831.89 313.85 1817.04 328.55
  C 1793.89 351.46 1760.88 360.54 1729.13 353.30
  A 0.40 0.39 0.1 0 0 1728.65 353.77
  C 1733.30 373.65 1747.49 388.83 1768.88 390.37
  C 1792.89 392.10 1812.33 380.83 1832.98 369.28
  C 1838.02 366.46 1843.98 370.05 1840.69 375.94
  C 1827.43 399.67 1804.63 417.68 1777.65 423.06
  C 1727.63 433.02 1692.85 391.13 1694.58 344.49
  Q 1694.74 340.16 1694.77 338.38
  Q 1694.78 337.87 1694.39 337.53
  Q 1689.34 333.12 1686.80 330.19
  C 1671.00 311.90 1669.85 287.35 1678.41 265.50
  Q 1690.56 234.52 1718.32 216.33
  C 1733.96 206.08 1755.65 199.67 1772.45 209.26
  Q 1774.41 210.39 1775.24 212.05
  A 1.39 1.38 -13.6 0 1 1774.01 214.05
  C 1743.22 214.45 1717.41 237.39 1704.56 264.37
  C 1698.58 276.92 1695.67 294.10 1702.72 306.92
  Z
  M 1729.98 324.74
  C 1755.10 331.61 1782.23 327.50 1800.10 307.70
  C 1806.40 300.70 1813.79 286.81 1804.21 279.29
  C 1793.90 271.22 1777.69 272.87 1765.94 277.97
  C 1746.93 286.22 1734.16 304.34 1729.54 324.00
  A 0.62 0.62 0.0 0 0 1729.98 324.74
  Z"
/>
<path fill="#ffffff" d="
  M 2302.93 329.59
  C 2293.94 325.45 2278.01 320.29 2266.02 312.67
  C 2251.44 303.40 2244.96 288.35 2251.12 271.41
  Q 2252.49 267.63 2256.67 260.05
  C 2265.69 243.68 2280.45 233.16 2298.77 229.02
  C 2323.14 223.52 2347.20 234.56 2353.26 260.00
  Q 2355.24 268.28 2352.12 275.76
  C 2348.20 285.18 2334.02 296.01 2323.41 291.09
  A 2.47 2.46 23.8 0 1 2322.17 287.90
  C 2323.36 285.04 2326.14 282.75 2327.92 280.21
  C 2331.89 274.51 2329.27 268.96 2324.57 264.94
  C 2313.13 255.15 2297.07 255.98 2284.80 263.55
  C 2281.51 265.58 2277.75 268.53 2276.82 272.30
  C 2273.86 284.41 2295.27 297.63 2303.71 302.03
  C 2319.58 310.31 2338.50 318.79 2346.44 335.26
  C 2352.32 347.45 2355.58 362.36 2354.73 375.75
  C 2351.99 418.95 2322.09 457.41 2284.57 477.08
  C 2261.23 489.32 2234.58 495.79 2208.24 498.21
  C 2172.46 501.50 2135.90 499.59 2100.26 495.59
  C 2062.80 491.39 2026.83 485.90 1988.12 481.15
  C 1966.60 478.51 1944.93 477.20 1923.25 477.87
  C 1862.19 479.75 1810.32 487.35 1744.38 496.80
  C 1729.81 498.89 1718.32 499.67 1704.91 498.81
  A 1.41 1.40 -15.1 0 1 1703.86 498.21
  Q 1702.81 496.68 1704.67 495.86
  C 1719.27 489.42 1731.31 486.91 1749.56 483.20
  C 1803.50 472.23 1850.38 463.15 1899.50 458.76
  C 1939.90 455.16 1977.85 456.63 2023.61 461.25
  C 2070.35 465.98 2117.06 471.37 2164.08 471.94
  C 2173.24 472.05 2182.52 471.56 2191.74 471.08
  C 2214.02 469.90 2237.17 466.18 2258.05 458.09
  C 2290.34 445.57 2316.80 419.48 2326.51 385.74
  C 2333.48 361.53 2326.43 340.42 2302.93 329.59
  Z"
/>
<path fill="#ffffff" d="
  M 659.69 376.27
  C 669.91 414.77 658.48 456.75 622.09 476.87
  C 595.84 491.39 564.23 492.90 534.25 489.44
  C 507.06 486.31 478.58 481.50 450.62 478.16
  Q 411.72 473.50 375.50 475.77
  C 349.21 477.42 323.86 485.11 300.40 496.65
  Q 285.37 504.05 270.41 511.60
  Q 265.49 514.09 259.63 514.65
  A 1.00 0.99 -3.8 0 1 258.54 513.70
  C 258.28 507.50 281.60 493.44 289.97 487.72
  Q 313.04 471.95 334.49 464.30
  C 357.72 456.03 381.98 453.62 406.50 453.57
  Q 437.05 453.50 468.75 457.44
  C 499.70 461.27 525.41 465.88 555.24 466.39
  C 593.33 467.04 631.87 452.46 635.10 408.62
  C 636.43 390.66 633.38 372.89 622.99 358.03
  C 617.49 350.16 607.13 340.50 600.34 332.43
  C 589.95 320.07 583.38 304.97 585.10 288.62
  C 588.30 258.27 620.46 229.80 650.37 228.94
  C 670.04 228.37 689.58 241.99 684.90 264.00
  C 681.65 279.24 666.01 292.17 651.98 297.67
  C 639.48 302.56 639.16 293.02 644.46 285.45
  Q 648.26 280.02 652.07 274.59
  C 655.25 270.06 663.34 258.97 656.90 256.34
  C 639.37 249.20 618.76 266.10 611.02 280.47
  C 602.60 296.08 609.11 309.58 620.68 320.83
  Q 629.36 329.27 637.84 337.90
  Q 653.82 354.18 659.69 376.27
  Z"
/>
<path fill="#ffffff" d="
  M 1601.53 290.23
  Q 1607.56 327.72 1603.65 365.52
  C 1601.64 384.99 1595.41 417.70 1573.99 425.87
  Q 1564.85 429.35 1555.95 425.35
  C 1535.64 416.22 1532.65 386.53 1534.61 367.67
  C 1537.41 340.60 1547.60 314.02 1561.98 290.51
  Q 1565.38 284.96 1569.38 280.17
  A 0.96 0.95 -42.8 0 0 1569.43 279.00
  C 1563.32 270.44 1552.74 261.00 1541.57 267.73
  C 1527.27 276.35 1523.86 302.33 1522.91 317.63
  C 1522.61 322.43 1518.79 328.80 1513.21 324.28
  Q 1511.78 323.12 1509.46 317.43
  C 1496.19 284.95 1508.71 243.91 1546.77 236.94
  C 1567.12 233.22 1583.76 244.70 1592.59 262.37
  A 0.66 0.66 0.0 0 0 1593.35 262.71
  C 1595.27 262.17 1597.37 261.20 1598.90 260.76
  Q 1609.72 257.63 1621.00 257.25
  Q 1630.37 256.94 1639.73 256.46
  Q 1647.53 256.06 1652.80 251.58
  C 1658.76 246.50 1663.11 239.56 1668.20 231.22
  Q 1669.35 229.33 1672.58 228.91
  Q 1673.04 228.85 1673.39 229.14
  Q 1675.89 231.10 1675.42 234.26
  C 1673.39 247.92 1670.36 261.24 1660.42 271.59
  C 1644.90 287.75 1622.62 286.97 1602.02 289.58
  Q 1601.44 289.65 1601.53 290.23
  Z
  M 1579.32 375.36
  Q 1585.05 345.44 1577.43 316.10
  A 0.23 0.23 0.0 0 0 1577.02 316.03
  C 1562.49 337.44 1553.15 361.69 1558.80 388.18
  C 1559.80 392.86 1563.54 400.55 1569.32 395.37
  C 1574.68 390.58 1578.03 382.10 1579.32 375.36
  Z"
/>
<path fill="#ffffff" d="
  M 885.93 385.99
  A 0.24 0.24 0.0 0 0 885.57 385.81
  C 875.36 391.43 865.35 396.47 853.98 399.32
  Q 851.74 399.88 849.57 399.52
  A 1.56 1.55 14.1 0 1 848.35 397.49
  C 849.43 394.30 854.74 390.00 857.36 387.85
  Q 870.04 377.39 883.24 367.12
  A 2.24 2.21 71.8 0 0 884.10 365.40
  C 884.81 330.64 899.14 297.99 921.20 271.46
  Q 931.96 258.52 945.37 248.35
  C 959.90 237.33 984.10 226.21 994.80 249.45
  Q 996.18 252.45 996.45 257.10
  C 997.39 273.06 987.07 290.25 978.21 302.50
  C 959.60 328.23 937.00 352.48 911.10 371.04
  A 1.56 1.56 0.0 0 0 910.45 372.40
  Q 911.09 382.62 916.12 391.94
  C 922.30 403.40 936.27 407.57 947.76 401.57
  C 963.95 393.12 976.00 375.67 981.35 358.62
  C 982.93 353.58 984.16 346.64 982.02 341.61
  A 1.41 1.41 0.0 0 0 980.39 340.79
  C 967.35 343.96 960.90 361.11 956.84 372.02
  Q 955.86 374.65 953.13 375.53
  Q 952.69 375.67 952.28 375.46
  Q 949.91 374.22 949.57 371.76
  C 947.19 354.20 951.11 336.59 964.60 324.35
  C 974.24 315.60 988.53 313.01 999.41 321.15
  C 1016.94 334.27 1012.77 360.50 1004.52 377.31
  C 992.61 401.57 969.17 424.76 941.50 429.45
  C 910.91 434.64 890.07 414.64 885.93 385.99
  Z
  M 966.37 274.37
  C 966.89 268.18 962.87 265.47 957.49 267.77
  C 952.36 269.98 947.74 275.15 943.58 279.85
  Q 917.68 309.16 911.57 347.98
  Q 911.45 348.73 912.01 348.21
  C 929.85 331.70 945.70 312.51 958.72 292.46
  C 962.18 287.13 965.84 280.82 966.37 274.37
  Z"
/>
<path fill="#ffffff" d="
  M 453.77 386.25
  C 443.87 391.26 434.31 396.34 423.51 399.19
  Q 420.62 399.95 418.24 399.46
  A 1.58 1.58 0.0 0 1 417.30 396.97
  Q 419.99 393.40 423.04 390.78
  Q 437.07 378.71 451.53 367.57
  A 2.51 2.51 0.0 0 0 452.50 365.65
  C 453.27 324.16 474.46 284.60 504.64 256.87
  C 516.21 246.25 539.11 230.45 554.65 242.05
  C 565.94 250.48 564.34 265.93 559.96 277.79
  C 555.55 289.74 547.84 300.82 539.79 311.30
  C 522.44 333.91 501.99 355.16 478.68 371.69
  Q 478.40 371.88 478.42 372.22
  C 478.90 384.99 485.01 400.48 499.13 403.67
  C 509.07 405.91 517.62 401.44 524.97 395.02
  Q 542.32 379.85 548.80 357.69
  C 550.14 353.12 551.12 347.21 549.27 342.70
  A 1.98 1.97 -23.8 0 0 546.61 341.67
  C 533.03 347.97 529.47 359.18 523.92 373.10
  Q 522.98 375.45 520.17 375.80
  Q 519.68 375.86 519.27 375.59
  C 515.04 372.79 516.62 357.29 517.28 352.76
  C 519.61 336.72 531.22 319.97 548.37 317.54
  Q 560.08 315.88 568.91 324.33
  C 579.25 334.23 580.19 351.64 576.10 365.27
  C 569.60 386.97 554.32 406.14 535.49 418.53
  C 501.53 440.87 460.79 430.01 454.34 386.54
  Q 454.26 386.00 453.77 386.25
  Z
  M 479.95 348.71
  C 495.94 334.14 510.28 317.09 522.49 299.27
  C 527.36 292.15 533.68 283.31 533.59 274.38
  C 533.52 266.74 525.68 268.03 521.58 271.33
  C 498.65 289.76 484.14 319.80 479.60 348.52
  Q 479.50 349.12 479.95 348.71
  Z"
/>
<path fill="#ffffff" d="
  M 2093.43 255.81
  Q 2103.70 245.41 2115.75 241.09
  C 2134.10 234.51 2152.22 242.24 2161.69 258.47
  A 0.76 0.76 0.0 0 0 2162.97 258.52
  C 2179.60 234.93 2211.69 234.75 2226.30 260.76
  C 2238.64 282.73 2236.24 309.42 2230.37 332.72
  Q 2226.54 347.96 2222.20 363.06
  C 2219.03 374.09 2214.84 388.25 2220.26 397.59
  A 2.05 2.04 61.2 0 0 2222.96 398.38
  C 2234.56 392.35 2240.56 377.43 2244.50 365.85
  C 2245.16 363.91 2246.06 362.23 2247.56 361.12
  A 2.94 2.93 43.9 0 1 2250.95 361.06
  Q 2252.82 362.33 2253.24 365.00
  C 2255.63 380.51 2254.66 396.20 2244.98 409.20
  C 2231.67 427.07 2207.29 428.21 2194.52 408.91
  C 2183.76 392.64 2185.44 371.44 2190.68 353.49
  C 2195.79 335.96 2199.51 324.90 2201.53 309.99
  C 2202.98 299.37 2203.12 281.76 2195.31 273.18
  C 2191.52 269.03 2185.70 274.86 2183.65 277.66
  C 2175.23 289.15 2171.61 305.30 2170.81 319.26
  C 2170.55 323.81 2167.84 331.04 2163.06 333.87
  C 2155.22 338.53 2145.78 335.04 2142.64 326.60
  C 2141.40 323.27 2141.28 317.32 2141.39 313.48
  C 2141.73 301.79 2140.20 281.85 2132.19 272.55
  C 2125.60 264.91 2111.04 278.51 2107.14 283.43
  A 1.69 1.68 55.7 0 0 2106.85 284.99
  Q 2123.45 338.29 2110.59 392.98
  Q 2107.64 405.49 2100.25 415.95
  C 2088.69 432.31 2067.24 431.14 2057.22 413.98
  C 2049.38 400.55 2048.66 382.53 2048.93 368.75
  Q 2049.85 321.40 2073.82 280.85
  A 2.24 2.23 47.5 0 0 2073.91 278.74
  C 2072.33 275.50 2067.27 266.71 2063.66 265.50
  A 1.01 1.00 33.2 0 0 2062.68 265.70
  Q 2058.86 269.05 2057.03 272.75
  C 2051.99 282.97 2049.62 292.51 2046.71 304.26
  Q 2046.30 305.90 2044.93 306.73
  C 2041.09 309.08 2037.73 300.37 2037.04 297.99
  C 2031.97 280.38 2034.08 254.02 2051.39 243.17
  C 2066.82 233.50 2082.83 242.35 2092.55 255.75
  Q 2092.95 256.30 2093.43 255.81
  Z
  M 2082.90 387.83
  Q 2090.16 353.92 2085.55 319.50
  Q 2085.45 318.78 2085.18 319.45
  Q 2071.48 352.68 2075.75 388.85
  Q 2076.41 394.47 2078.25 399.22
  Q 2078.77 400.57 2079.33 399.23
  Q 2081.62 393.83 2082.90 387.83
  Z"
/>
<path fill="#ffffff" d="
  M 1969.51 271.27
  C 1988.76 261.78 2008.40 270.53 2017.05 289.48
  C 2033.06 324.54 2003.72 368.90 1979.06 391.70
  A 0.95 0.94 -49.7 0 0 1979.18 393.18
  C 1991.78 401.38 2005.20 402.07 2020.12 403.58
  C 2027.34 404.30 2029.64 412.52 2023.19 416.43
  C 2006.48 426.57 1989.10 431.17 1970.00 424.18
  Q 1960.11 420.55 1952.47 413.72
  A 1.12 1.12 0.0 0 0 1951.12 413.60
  C 1904.91 442.29 1857.36 418.07 1851.22 364.99
  C 1847.54 333.09 1858.48 301.36 1878.67 276.67
  C 1891.22 261.32 1908.95 248.85 1928.49 245.00
  C 1947.77 241.19 1966.17 249.40 1968.43 270.67
  Q 1968.54 271.74 1969.51 271.27
  Z
  M 1957.66 279.12
  A 0.40 0.40 0.0 0 0 1957.75 278.70
  C 1953.42 266.44 1945.54 261.01 1932.24 264.82
  C 1892.19 276.29 1871.19 326.94 1880.04 364.98
  C 1883.22 378.63 1892.41 391.68 1906.92 393.71
  C 1915.51 394.91 1925.49 392.20 1933.42 388.11
  A 1.23 1.21 67.0 0 0 1934.01 386.63
  C 1921.82 351.60 1930.75 305.41 1957.66 279.12
  Z
  M 1979.66 345.88
  C 1987.50 334.49 1997.28 312.65 1990.62 299.20
  C 1985.41 288.69 1974.87 301.21 1971.77 306.11
  C 1961.21 322.79 1958.93 346.61 1962.41 365.76
  Q 1962.61 366.88 1963.33 365.99
  Q 1965.19 363.67 1967.57 361.08
  Q 1974.15 353.90 1979.66 345.88
  Z"
/>
<path fill="#ffffff" d="
  M 1079.27 266.34
  C 1091.43 252.51 1108.71 243.74 1127.26 249.94
  C 1149.27 257.30 1158.80 280.24 1159.86 301.60
  C 1161.14 327.57 1154.22 352.63 1147.91 378.27
  C 1146.28 384.90 1143.38 400.42 1148.65 405.55
  Q 1149.02 405.91 1149.53 405.82
  Q 1151.60 405.46 1153.36 404.38
  C 1162.93 398.50 1170.37 390.36 1178.30 382.56
  Q 1180.85 380.06 1184.41 378.67
  Q 1186.56 377.84 1187.27 380.03
  C 1189.31 386.31 1170.57 411.49 1166.70 416.19
  C 1162.06 421.81 1153.89 427.39 1145.96 427.30
  C 1131.16 427.14 1122.94 413.48 1121.05 400.45
  Q 1119.15 387.29 1120.66 373.99
  C 1123.18 351.91 1126.58 330.35 1125.85 308.01
  C 1125.55 298.70 1123.93 284.75 1115.96 279.03
  C 1107.93 273.26 1096.47 281.86 1091.24 287.94
  A 1.15 1.14 -34.7 0 0 1091.03 289.08
  Q 1103.21 322.65 1100.94 358.05
  C 1099.63 378.35 1093.12 419.53 1068.90 426.08
  C 1052.40 430.54 1041.60 415.18 1038.37 401.37
  Q 1034.75 385.86 1036.25 369.49
  C 1038.64 343.51 1048.45 316.94 1060.82 294.19
  A 2.65 2.64 45.8 0 0 1060.85 291.73
  C 1057.96 286.04 1045.39 265.96 1038.18 275.20
  C 1030.17 285.45 1028.46 298.42 1030.08 311.25
  Q 1030.44 314.05 1027.95 315.30
  A 1.19 1.17 40.9 0 1 1027.04 315.36
  C 1018.38 312.36 1016.11 297.57 1015.73 289.71
  C 1014.95 273.96 1021.37 253.90 1037.68 248.22
  C 1053.76 242.61 1069.53 253.90 1078.52 266.31
  Q 1078.87 266.79 1079.27 266.34
  Z
  M 1072.82 376.37
  Q 1076.24 353.96 1072.95 331.51
  Q 1072.10 325.71 1071.14 320.10
  Q 1071.02 319.42 1070.72 320.05
  C 1059.93 342.61 1049.73 378.60 1061.78 402.46
  Q 1062.43 403.74 1063.30 402.61
  C 1068.89 395.43 1071.47 385.18 1072.82 376.37
  Z"
/>
</svg>
