<?xml version="1.0" encoding="UTF-8" standalone="no"?>
<!DOCTYPE svg PUBLIC "-//W3C//DTD SVG 1.1//EN" "http://www.w3.org/Graphics/SVG/1.1/DTD/svg11.dtd">
<svg xmlns="http://www.w3.org/2000/svg" version="1.1" viewBox="0.00 0.00 1000.00 1000.00">
<path fill="#00b2a6" d="
  M 500.20 269.64
  L 673.57 96.78
  A 2.14 2.14 0.0 0 1 676.54 96.72
  C 691.04 110.18 704.76 124.39 718.77 138.37
  Q 808.16 227.62 893.93 313.32
  Q 910.57 329.94 927.20 346.56
  Q 943.14 362.48 961.44 381.08
  C 973.56 393.39 986.35 405.70 998.85 418.66
  A 1.68 1.67 49.0 0 1 998.68 421.14
  Q 996.01 423.23 993.47 425.72
  C 979.11 439.87 965.30 453.98 951.09 467.98
  C 938.34 480.54 925.81 493.39 912.91 506.04
  C 902.90 515.85 893.39 525.86 883.58 535.50
  C 869.66 549.17 855.96 563.32 841.92 577.06
  C 832.45 586.33 822.77 596.41 813.88 605.17
  Q 799.77 619.08 785.89 633.23
  C 778.10 641.18 769.04 649.68 762.45 656.47
  C 749.49 669.80 735.98 682.91 723.16 695.83
  Q 687.21 732.06 651.05 768.07
  Q 646.29 772.81 641.54 777.54
  Q 605.03 813.87 567.40 851.65
  Q 533.54 885.63 500.37 918.69
  A 0.52 0.52 0.0 0 1 499.63 918.69
  L 2.33 421.20
  Q 0.64 419.50 2.28 417.75
  Q 10.87 408.59 19.72 399.72
  Q 38.42 380.98 58.68 360.68
  Q 188.33 230.83 323.31 95.72
  A 2.13 2.12 47.3 0 1 326.44 95.85
  Q 329.12 98.99 332.15 102.10
  Q 343.26 113.50 354.21 124.15
  C 358.50 128.33 362.68 133.09 367.22 137.32
  C 374.73 144.32 381.50 151.89 389.03 158.96
  C 393.06 162.74 396.51 166.89 400.58 170.71
  Q 406.55 176.34 412.03 182.12
  C 418.29 188.71 425.03 194.70 431.24 201.29
  C 436.53 206.91 442.28 212.03 447.62 217.69
  Q 452.79 223.17 459.00 229.03
  C 464.20 233.95 468.96 239.27 474.10 244.18
  C 481.95 251.68 489.26 259.87 497.49 267.25
  C 498.21 267.90 498.83 268.76 499.37 269.57
  Q 499.74 270.10 500.20 269.64
  Z
  M 500.33 417.94
  Q 499.47 418.28 498.86 417.67
  L 326.63 244.97
  A 1.62 1.61 46.2 0 0 324.39 244.92
  Q 316.25 252.37 307.47 261.20
  Q 236.76 332.27 165.66 402.93
  Q 159.16 409.39 153.26 415.77
  Q 150.15 419.13 153.09 422.37
  Q 157.20 426.90 161.90 431.60
  Q 303.68 573.48 445.54 715.46
  Q 466.64 736.57 488.22 757.89
  C 491.53 761.16 494.56 764.80 498.04 767.89
  A 2.55 2.54 43.5 0 0 501.51 767.80
  Q 525.95 743.76 549.32 720.32
  Q 575.57 693.99 602.88 666.63
  Q 672.38 597.01 741.90 527.40
  Q 761.18 508.09 777.08 492.33
  Q 808.89 460.79 840.52 429.05
  Q 844.89 424.67 847.68 421.18
  A 2.47 2.47 0.0 0 0 847.51 417.91
  C 836.75 406.93 825.81 396.31 815.28 385.55
  C 802.42 372.41 789.23 359.67 776.37 346.48
  C 765.31 335.14 753.76 324.26 742.75 312.86
  C 730.19 299.84 717.05 287.40 704.39 274.33
  Q 690.15 259.64 674.41 244.77
  A 0.79 0.79 0.0 0 0 673.22 244.90
  Q 671.66 247.14 669.82 248.98
  Q 586.28 332.49 502.04 416.80
  Q 501.26 417.57 500.33 417.94
  Z"
/>
</svg>
